<?xml version="1.0" encoding="utf-8"?>
<!-- Generator: Adobe Illustrator 28.4.1, SVG Export Plug-In . SVG Version: 6.00 Build 0)  -->
<svg version="1.1" id="Roblox_-_Icon_x2C__2025" xmlns="http://www.w3.org/2000/svg" xmlns:xlink="http://www.w3.org/1999/xlink"
	 x="0px" y="0px" viewBox="0 0 512 512" style="enable-background:new 0 0 512 512;" xml:space="preserve">
<style type="text/css">
	.st0{fill:#FFFFFF;}
</style>
<g id="Studio">
	<path id="BG" d="M419.8,512H92.2C41.3,512,0,470.7,0,419.8V92.2C0,41.3,41.3,0,92.2,0h327.5C470.7,0,512,41.3,512,92.2v327.5
		C512,470.7,470.7,512,419.8,512z"/>
	<g id="O_Blx_00000131363628170372710290000004464889758193558674_">
		<polygon class="st0" points="399.9,294.6 296.2,266.8 285.4,307 101.4,257.7 73.6,361.3 361.3,438.4 389.1,334.8 389.1,334.8 		
			"/>
		<polygon class="st0" points="438.4,150.7 150.7,73.6 112.1,217.4 215.8,245.2 226.6,205 410.6,254.3 		"/>
	</g>
</g>
</svg>
